<svg width="24" height="24" id="Layer_1" enable-background="new 0 0 511.927 511.927" viewBox="0 0 511.927 511.927" xmlns="http://www.w3.org/2000/svg"><g><path d="m256.945 71.344-1.087.004c-39.777.28-77.289 16.01-105.626 44.291-28.338 28.282-44.141 65.763-44.497 105.539-.38 42.463 17.258 83.382 48.391 112.263 10.973 10.18 17.267 24.425 17.267 39.082v81.85h30.578v2.58c0 30.313 24.662 54.975 54.975 54.975s54.975-24.662 54.975-54.975v-2.58h30.578v-82.033c0-14.604 6.166-28.663 16.916-38.574 30.979-28.558 48.748-69.091 48.748-111.205-.001-83.381-67.837-151.217-151.218-151.217zm24.974 385.608c0 13.771-11.203 24.975-24.975 24.975-13.771 0-24.975-11.204-24.975-24.975v-2.58h49.949v2.58zm-80.527-32.579v-36.85h111.105v36.85zm137.688-112.665c-13.215 12.182-22.02 28.358-25.229 45.814h-41.906v-52.172l40.771-26.223v-45.153h-30v28.779l-25.771 16.575-25.771-16.575v-28.779h-30v45.153l40.771 26.223v52.172h-41.949c-3.266-17.46-12.151-33.722-25.468-46.075-24.959-23.154-39.1-55.958-38.795-90 .589-65.76 54.572-119.636 120.335-120.1l.876-.003c66.839 0 121.217 54.377 121.217 121.216.001 33.76-14.244 66.253-39.081 89.148z"/><path d="m240.963 0h30v40.534h-30z"/><path d="m139.79 27.005h30v40.638h-30z" transform="matrix(.866 -.5 .5 .866 -2.924 83.735)"/><path d="m65.727 101.069h30v40.638h-30z" transform="matrix(.5 -.866 .866 .5 -64.761 130.604)"/><path d="m33.298 207.561h40.638v30h-40.638z"/><path d="m437.991 207.561h40.638v30h-40.638z"/><path d="m410.881 106.387h40.639v30h-40.639z" transform="matrix(.866 -.5 .5 .866 -2.924 231.862)"/><path d="m336.818 32.324h40.638v30h-40.638z" transform="matrix(.5 -.866 .866 .5 137.583 332.95)"/></g></svg>